# xmcd
#
# Track frame offsets: 
#        150
#        16811
#        38623
#        53566
#        73644
#        92613
#        118079
#        136044
#        155460
#        172643
#        195605
#
# Disc length: 2811 seconds
#
# Revision: 0
# Processed by: cddbd v1.5.2PL0 Copyright (c) Steve Scherf et al.
# Submitted via: ExactAudioCopy v0.99pb3
#
DISCID=7b0af90b
DTITLE=Sara Groves - Tell Me What You Know
DYEAR=2007
DGENRE=Country
TTITLE0=Song For My Sons
TTITLE1=In The Girl There's A Room
TTITLE2=Say A Prayer
TTITLE3=Love Is Still A Worthy Cause
TTITLE4=When The Saints
TTITLE5=Honestly
TTITLE6=Abstraction
TTITLE7=I Saw What I Saw
TTITLE8=It Might Be Hope
TTITLE9=The Long Defeat
TTITLE10=You Are Wonderful
EXTD=
EXTT0=
EXTT1=
EXTT2=
EXTT3=
EXTT4=
EXTT5=
EXTT6=
EXTT7=
EXTT8=
EXTT9=
EXTT10=
PLAYORDER=
